<svg xmlns="http://www.w3.org/2000/svg" viewBox="0 0 1600 900"><defs><linearGradient id="b" x1="0" y1="0" x2="1" y2="1"><stop stop-color="#020d1b"/><stop offset=".6" stop-color="#061b31"/><stop offset="1" stop-color="#082641"/></linearGradient><linearGradient id="g"><stop stop-color="#08b9ff"/><stop offset="1" stop-color="#9b5cff"/></linearGradient></defs><rect width="1600" height="900" fill="url(#b)"/><g fill="#08b9ff" opacity=".08"><circle cx="1320" cy="160" r="230"/><circle cx="220" cy="760" r="300"/></g><rect x="220" y="145" width="1160" height="610" rx="38" fill="#06182b" stroke="#0d8df5" stroke-opacity=".35" stroke-width="5"/><g><rect x="290" y="220" width="300" height="420" rx="22" fill="#020d1b" stroke="#08b9ff" stroke-opacity=".45"/><rect x="650" y="220" width="300" height="420" rx="22" fill="#020d1b" stroke="#18d39e" stroke-opacity=".45"/><rect x="1010" y="220" width="300" height="420" rx="22" fill="#020d1b" stroke="#9b5cff" stroke-opacity=".45"/></g><g fill="url(#g)"><circle cx="440" cy="325" r="58"/><circle cx="800" cy="325" r="58"/><circle cx="1160" cy="325" r="58"/></g><g fill="#edf6ff"><rect x="350" y="430" width="180" height="16" rx="8"/><rect x="350" y="470" width="130" height="12" rx="6" opacity=".65"/><rect x="710" y="430" width="180" height="16" rx="8"/><rect x="710" y="470" width="145" height="12" rx="6" opacity=".65"/><rect x="1070" y="430" width="180" height="16" rx="8"/><rect x="1070" y="470" width="120" height="12" rx="6" opacity=".65"/></g></svg>